<svg width="90" height="90" viewBox="0 0 90 90" fill="none" xmlns="http://www.w3.org/2000/svg">
<path d="M44.8203 84.8203C66.9116 84.8203 84.8202 66.9117 84.8202 44.8203C84.8202 22.7289 66.9116 4.82031 44.8203 4.82031C22.7289 4.82031 4.82031 22.7289 4.82031 44.8203C4.82031 66.9117 22.7289 84.8203 44.8203 84.8203Z" fill="url(#paint0_linear_1157_19496)"/>
<path d="M56.363 53.4695L67.6798 46.9349C68.2792 46.5886 68.65 45.9451 68.65 45.2526V32.185C68.65 31.4941 68.2776 30.849 67.6798 30.5027L56.363 23.9681C55.7636 23.6218 55.0205 23.6234 54.4211 23.9681L43.1043 30.5027C42.5049 30.849 42.1342 31.4941 42.1342 32.185V55.5388L34.1982 60.1201L26.2622 55.5388V46.3747L34.1982 41.7934L39.4328 44.8149V38.6673L35.1683 36.206C34.8743 36.0362 34.5379 35.9463 34.1966 35.9463C33.8552 35.9463 33.5188 36.0362 33.2264 36.206L21.9096 42.7407C21.3102 43.0869 20.9395 43.7304 20.9395 44.4229V57.4906C20.9395 58.1814 21.3118 58.8266 21.9096 59.1728L33.2264 65.7075C33.8242 66.0521 34.5689 66.0521 35.1683 65.7075L46.4851 59.1745C47.0845 58.8282 47.4553 58.1831 47.4553 57.4922V34.1383L47.599 34.0567L55.3913 29.5571L63.3272 34.1383V43.3025L55.3913 47.8838L50.1648 44.8655V51.0131L54.4211 53.4711C55.0205 53.8158 55.7636 53.8158 56.363 53.4711V53.4695Z" fill="white"/>
<defs>
<linearGradient id="paint0_linear_1157_19496" x1="-9.79959" y1="11.3955" x2="72.7875" y2="61.9347" gradientUnits="userSpaceOnUse">
<stop stop-color="#A229C5"/>
<stop offset="1" stop-color="#7B3FE4"/>
</linearGradient>
</defs>
</svg>
