<svg width="132" height="57" viewBox="0 0 132 57" fill="none" xmlns="http://www.w3.org/2000/svg">
<path d="M17.6474 0.051167H0L30.5751 54.7487L32.2681 56.386L32.9863 56.693L33.961 57H37.1929L37.8598 56.8465L38.6806 56.386L39.3988 55.9767L39.9119 55.5162L40.3223 55.158L40.6301 54.6463L71 0.307002V0.102334L70.8974 0H53.6604L52.8396 0.204668L52.4292 0.409336L51.711 0.818672L51.0954 1.33034L50.7876 1.73968L32.6272 34.9982V36.0215L36.013 39.8079H36.2695L36.5773 39.7056L37.0903 39.0916L53.4552 9.72172L54.9429 7.06104H58.9444L59.2009 7.26571L59.0983 7.57271L56.0202 12.8941L50.5311 22.6158L46.1192 30.2908L41.2457 39.0404L37.7572 45.2316L36.3208 47.2783L35.9617 47.4829H35.0896L34.7818 47.3294L34.5766 47.1248L32.7298 44.0036L29.6517 38.5799L25.3425 30.9048L21.4436 23.9461L17.1344 16.2711L13.8512 10.4381L12.0043 7.06104H16.4162L20.315 14.0197L25.0347 22.5135L26.6763 25.4811L28.677 29.1652L30.3699 32.0305H30.6264L33.5506 26.658L33.6019 25.1741L30.3186 19.1364L25.7016 11.0521L22.6749 5.37253L21.854 3.78636L21.2384 2.76302L20.6228 1.84201L20.0585 1.33034L19.6481 0.972172L19.2377 0.716338L18.5708 0.307002L17.6474 0.051167Z" fill="url(#paint0_linear_807_3662)"/>
<path d="M61.36 56.49C59.6333 56.49 58.105 56.1283 56.775 55.405C55.4683 54.6583 54.4417 53.62 53.695 52.29C52.9717 50.9367 52.61 49.35 52.61 47.53V47.11C52.61 45.29 52.9717 43.715 53.695 42.385C54.4183 41.0317 55.4333 39.9933 56.74 39.27C58.0467 38.5233 59.5633 38.15 61.29 38.15C62.9933 38.15 64.475 38.535 65.735 39.305C66.995 40.0517 67.975 41.1017 68.675 42.455C69.375 43.785 69.725 45.3367 69.725 47.11V48.615H57.09C57.1367 49.805 57.58 50.7733 58.42 51.52C59.26 52.2667 60.2867 52.64 61.5 52.64C62.7367 52.64 63.6467 52.3717 64.23 51.835C64.8133 51.2983 65.2567 50.7033 65.56 50.05L69.165 51.94C68.8383 52.5467 68.36 53.2117 67.73 53.935C67.1233 54.635 66.3067 55.2417 65.28 55.755C64.2533 56.245 62.9467 56.49 61.36 56.49ZM57.125 45.325H65.245C65.1517 44.3217 64.7433 43.5167 64.02 42.91C63.32 42.3033 62.3983 42 61.255 42C60.065 42 59.12 42.3033 58.42 42.91C57.72 43.5167 57.2883 44.3217 57.125 45.325ZM73.6502 56V38.64H77.9902V40.6H78.6202C78.8769 39.9 79.2969 39.3867 79.8802 39.06C80.4869 38.7333 81.1869 38.57 81.9802 38.57H84.0802V42.49H81.9102C80.7902 42.49 79.8685 42.7933 79.1452 43.4C78.4219 43.9833 78.0602 44.8933 78.0602 46.13V56H73.6502ZM94.1771 56C93.0338 56 92.1005 55.65 91.3771 54.95C90.6771 54.2267 90.3271 53.27 90.3271 52.08V42.28H85.9871V38.64H90.3271V33.25H94.7371V38.64H99.4971V42.28H94.7371V51.31C94.7371 52.01 95.0638 52.36 95.7171 52.36H99.0771V56H94.1771ZM103.489 56V38.64H107.899V56H103.489ZM105.694 36.61C104.901 36.61 104.224 36.3533 103.664 35.84C103.127 35.3267 102.859 34.65 102.859 33.81C102.859 32.97 103.127 32.2933 103.664 31.78C104.224 31.2667 104.901 31.01 105.694 31.01C106.511 31.01 107.187 31.2667 107.724 31.78C108.261 32.2933 108.529 32.97 108.529 33.81C108.529 34.65 108.261 35.3267 107.724 35.84C107.187 36.3533 106.511 36.61 105.694 36.61ZM111.246 56L117.546 47.25L111.316 38.64H116.426L120.381 44.415H121.011L124.966 38.64H130.076L123.846 47.25L130.146 56H124.966L121.011 50.155H120.381L116.426 56H111.246Z" fill="white"/>
<defs>
<linearGradient id="paint0_linear_807_3662" x1="71" y1="28.5" x2="0" y2="28.5" gradientUnits="userSpaceOnUse">
<stop offset="0.336538" stop-color="#FC008F"/>
<stop offset="0.519231" stop-color="#2533EA"/>
<stop offset="0.658654" stop-color="#00CCEE"/>
</linearGradient>
</defs>
</svg>
